<?xml version="1.0" encoding="UTF-8"?>
<svg xmlns="http://www.w3.org/2000/svg" xmlns:xlink="http://www.w3.org/1999/xlink" viewBox="0 0 24 24" version="1.1" fill="#ffffff" width="24px" height="24px">
<g id="surface1" fill="#ffffff">
<path style=" " d="M 12 2 L 12 4 C 16.464844 4 20 7.535156 20 12 C 20 16.464844 16.464844 20 12 20 C 7.535156 20 4 16.464844 4 12 C 4 10.308594 4.53125 8.742188 5.4375 7.4375 L 7.59375 9.59375 L 9 2.5 L 2 4 L 4.03125 6.03125 C 2.773438 7.707031 2 9.761719 2 12 C 2 17.535156 6.464844 22 12 22 C 17.535156 22 22 17.535156 22 12 C 22 6.464844 17.535156 2 12 2 Z " fill="#ffffff"/>
</g>
</svg>
